<svg width="198" height="184" viewBox="0 0 198 184" fill="none" xmlns="http://www.w3.org/2000/svg">
    <path d="M0 12C0 5.37258 5.37258 0 12 0H198V184H0V12Z" fill="#3253FF"/>
    <path d="M77.376 123.016C81.664 120.008 86.016 116.424 90.432 112.264C94.848 108.04 98.624 103.496 101.76 98.632C104.896 93.768 106.464 89.128 106.464 84.712C106.464 81.96 105.696 79.784 104.16 78.184C102.624 76.584 100.512 75.784 97.824 75.784C94.88 75.784 92.064 76.584 89.376 78.184C86.752 79.72 84.608 81.8 82.944 84.424L75.552 76.744C77.792 72.968 80.864 70.056 84.768 68.008C88.736 65.896 93.12 64.84 97.92 64.84C104.896 64.84 110.368 66.568 114.336 70.024C118.368 73.416 120.384 78.152 120.384 84.232C120.384 89.864 118.176 95.912 113.76 102.376C109.344 108.84 103.328 115.624 95.712 122.728H122.688V133H77.376V123.016Z" fill="white"/>
</svg>
