<svg width="198" height="130" viewBox="0 0 198 130" fill="none" xmlns="http://www.w3.org/2000/svg">
    <path d="M0 0H186C192.627 0 198 5.37258 198 12V130H0V0Z" fill="#183DFF"/>
    <path d="M98.496 106.864C93.44 106.864 88.96 105.968 85.056 104.176C81.152 102.32 78.208 99.728 76.224 96.4L82.944 88.912C84.736 91.024 87.008 92.72 89.76 94C92.512 95.28 95.232 95.92 97.92 95.92C101.12 95.92 103.68 95.024 105.6 93.232C107.584 91.376 108.576 88.944 108.576 85.936C108.576 82.736 107.392 80.24 105.024 78.448C102.656 76.656 99.392 75.76 95.232 75.76H89.472V65.968H95.136C98.464 65.968 101.152 65.072 103.2 63.28C105.248 61.424 106.272 59.088 106.272 56.272C106.272 53.904 105.504 52.08 103.968 50.8C102.432 49.52 100.192 48.88 97.248 48.88C94.368 48.88 91.68 49.488 89.184 50.704C86.688 51.92 84.48 53.648 82.56 55.888L76.128 48.304C78.432 45.104 81.632 42.576 85.728 40.72C89.824 38.864 94.24 37.936 98.976 37.936C103.136 37.936 106.816 38.64 110.016 40.048C113.216 41.456 115.68 43.44 117.408 46C119.136 48.496 120 51.408 120 54.736C120 58.128 119.104 61.168 117.312 63.856C115.52 66.544 112.896 68.688 109.44 70.288C113.792 71.824 117.024 73.968 119.136 76.72C121.312 79.472 122.4 82.864 122.4 86.896C122.4 90.864 121.408 94.352 119.424 97.36C117.44 100.368 114.624 102.704 110.976 104.368C107.392 106.032 103.232 106.864 98.496 106.864Z" fill="white"/>
</svg>
