<svg width="194" height="85" viewBox="0 0 194 85" fill="none" xmlns="http://www.w3.org/2000/svg">
    <path d="M0.397147 36.3721C0.397147 34.5187 0.344194 32.6124 0.238288 30.6531C0.185335 28.6939 0.105906 27.0259 0 25.6491H10.723C10.8818 27.1318 10.9613 28.7733 10.9613 30.5737H11.1201C12.4969 28.7204 14.1914 27.3171 16.2036 26.364C18.2158 25.3578 20.5193 24.8548 23.1139 24.8548C28.1445 24.8548 32.1159 26.7081 35.0283 30.4149C37.9408 34.1216 39.397 39.1786 39.397 45.5859C39.397 52.0461 37.9143 57.1031 34.9489 60.7569C32.0365 64.3577 27.9856 66.1581 22.7962 66.1581C20.3604 66.1581 18.1628 65.7609 16.2036 64.9666C14.2973 64.1723 12.8676 63.0868 11.9144 61.71H11.6761V84.5857H0.397147V36.3721ZM20.1751 57.818C22.7698 57.818 24.729 56.7589 26.0528 54.6408C27.4296 52.4697 28.118 49.3455 28.118 45.2681C28.118 37.3782 25.5233 33.4332 20.3339 33.4332C17.7392 33.4332 15.6476 34.1745 14.059 35.6572C12.4704 37.1399 11.6761 39.0727 11.6761 41.4555V49.9545C11.6761 52.1255 12.4969 53.9789 14.1384 55.5145C15.8329 57.0502 17.8451 57.818 20.1751 57.818Z" fill="#5B75FF"/>
    <path d="M56.9738 66.1581C53.426 66.1581 50.6989 65.2314 48.7926 63.378C46.8863 61.5247 45.9331 58.8506 45.9331 55.3557V6.42719H57.2121V55.594C57.2121 57.5003 58.3771 58.4534 60.707 58.4534C62.0308 58.4534 63.5929 58.0827 65.3933 57.3414L67.0613 63.2192C64.5196 65.1784 61.1571 66.1581 56.9738 66.1581Z" fill="#5B75FF"/>
    <path d="M71.4864 33.9892H82.7654V65.3638H71.4864V33.9892Z" fill="#5B75FF"/>
    <path d="M110.107 66.1581C105.818 66.1581 102.482 65.0461 100.099 62.822C97.7691 60.598 96.6041 57.4738 96.6041 53.4494V33.9892H89.376V25.6491H96.6041V15.5616L107.565 12.3844H107.883V25.6491H130.17V33.9892H107.883V51.7019C107.883 53.82 108.413 55.3822 109.472 56.3883C110.531 57.3414 112.172 57.818 114.396 57.818C116.514 57.818 118.474 57.4738 120.274 56.7854L120.751 64.4106C118.103 65.5756 114.555 66.1581 110.107 66.1581Z" fill="#5B75FF"/>
    <path d="M130.17 33.1949H118.879V25.6491H130.17V20.9628C130.17 17.0442 131.415 13.973 133.904 11.749C136.445 9.52493 139.887 8.41292 144.229 8.41292C146.295 8.41292 148.227 8.73064 150.028 9.36607C151.828 10.0015 153.311 10.9017 154.476 12.0667L150.584 18.6593C149.948 18.0768 149.207 17.6267 148.36 17.309C147.513 16.9913 146.692 16.8324 145.897 16.8324C144.521 16.8324 143.435 17.309 142.641 18.2622C141.847 19.1624 141.449 20.4068 141.449 21.9953V25.6491H161.904V33.1949H141.449V65.3638H130.17V33.1949Z" fill="#5B75FF"/>
    <path d="M194 25.6491L178.591 67.5878C177.055 71.7711 174.805 74.9482 171.839 77.1193C168.927 79.2904 165.432 80.3759 161.355 80.3759C159.183 80.3759 156.801 80.0317 154.206 79.3433V70.3678C154.841 70.5796 155.689 70.765 156.748 70.9238C157.807 71.1356 158.76 71.2415 159.607 71.2415C161.778 71.2415 163.658 70.5002 165.247 69.0175C166.888 67.5348 168.291 65.2314 169.456 62.1072L154.682 25.6491H166.597L174.778 49.3985L182.086 25.6491H194Z" fill="#5B75FF"/>
    <path d="M87.7571 4.53705C87.9193 4.31761 87.9718 4.06954 87.9145 3.79284C87.8573 3.51615 87.6998 3.29192 87.4422 3.12016C86.5072 2.45226 85.4815 1.88685 84.3651 1.42393C83.2488 0.961206 82.0752 0.608205 80.8444 0.364924C79.6136 0.121643 78.3541 3.8147e-06 77.066 3.8147e-06C75.7779 3.8147e-06 74.5185 0.124086 73.2877 0.372252C72.0568 0.620223 70.8856 0.978013 69.7741 1.44562C68.6625 1.91303 67.6344 2.47121 66.6898 3.12016C66.4227 3.29192 66.2628 3.51615 66.2104 3.79284C66.1579 4.06954 66.2128 4.31761 66.375 4.53705C66.5372 4.7755 66.7542 4.91143 67.0262 4.94482C67.2981 4.97822 67.5676 4.90424 67.8348 4.72288C68.6649 4.15053 69.5761 3.65684 70.5684 3.2418C71.5607 2.82675 72.6031 2.50951 73.6955 2.29007C74.788 2.07063 75.9115 1.96091 77.066 1.96091C78.211 1.96091 79.3321 2.07063 80.4293 2.29007C81.5266 2.50951 82.5714 2.82675 83.5637 3.2418C84.556 3.65684 85.4672 4.15053 86.2973 4.72288C86.5644 4.90424 86.834 4.97822 87.1059 4.94482C87.3778 4.91143 87.5949 4.7755 87.7571 4.53705ZM84.7945 8.87346C84.9567 8.64448 85.0116 8.39641 84.9591 8.12925C84.9066 7.86209 84.7563 7.64264 84.5083 7.4709C83.516 6.7553 82.371 6.2019 81.0734 5.8107C79.7757 5.41951 78.44 5.22392 77.066 5.22392C75.6921 5.22392 74.3539 5.41713 73.0515 5.80354C71.7491 6.18996 70.6065 6.74575 69.6238 7.4709C69.3757 7.64264 69.2254 7.86209 69.173 8.12925C69.1205 8.39641 69.1753 8.64448 69.3375 8.87346C69.4902 9.11199 69.7025 9.24795 69.9744 9.28135C70.2464 9.31474 70.5159 9.2408 70.783 9.05952C71.6227 8.46797 72.5887 8.00999 73.6812 7.68557C74.7737 7.36116 75.902 7.19895 77.066 7.19895C78.2301 7.19895 79.3559 7.36593 80.4436 7.69988C81.5313 8.03383 82.4998 8.48704 83.349 9.05952C83.6161 9.23127 83.8857 9.30283 84.1576 9.2742C84.4295 9.24557 84.6418 9.11199 84.7945 8.87346ZM81.8892 13.1814C82.0323 12.9715 82.08 12.7329 82.0323 12.4658C81.9846 12.1986 81.8367 11.9792 81.5886 11.8074C81.0161 11.3781 80.3291 11.0441 79.5277 10.8056C78.7262 10.567 77.9057 10.4478 77.066 10.4478C76.2264 10.4478 75.4082 10.567 74.6115 10.8056C73.8148 11.0441 73.1254 11.3781 72.5434 11.8074C72.2954 11.9792 72.1475 12.1986 72.0997 12.4658C72.052 12.7329 72.1045 12.9715 72.2572 13.1814C72.4385 13.439 72.6699 13.5869 72.9513 13.6251C73.2328 13.6632 73.5071 13.5821 73.7742 13.3817C74.1845 13.086 74.6831 12.8546 75.2699 12.6876C75.8567 12.5206 76.4554 12.4371 77.066 12.4371C77.6767 12.4371 78.273 12.523 78.855 12.6948C79.437 12.8665 79.938 13.0955 80.3578 13.3817C80.6249 13.5821 80.9016 13.6632 81.1879 13.6251C81.4741 13.5869 81.7079 13.439 81.8892 13.1814Z" fill="#5B75FF"/>
    <path d="M87.0987 18.4196C87.0987 18.0188 86.9699 17.6873 86.7123 17.4249C86.4547 17.1625 86.1255 17.0313 85.7248 17.0313H68.5074C68.1067 17.0313 67.7656 17.1649 67.4841 17.4321C67.2027 17.6992 67.0619 18.0379 67.0619 18.4482C67.0619 18.7344 67.1263 18.9921 67.2551 19.2211C67.384 19.45 67.6058 19.7267 67.9206 20.0511L72.3001 24.7455C72.3669 24.8027 72.4003 24.8838 72.4003 24.9888V28.1231C72.4003 28.9437 72.615 29.5638 73.0443 29.9837C73.4737 30.4035 74.1321 30.6134 75.0194 30.6134H79.1556C80.0334 30.6134 80.6893 30.4035 81.1235 29.9837C81.5576 29.5638 81.7746 28.9437 81.7746 28.1231V24.9888C81.7746 24.8934 81.8033 24.8123 81.8605 24.7455L86.3259 20.0511C86.6026 19.7554 86.8006 19.481 86.9198 19.2282C87.0391 18.9753 87.0987 18.7058 87.0987 18.4196Z" fill="#5B75FF"/>
</svg>
